<svg xmlns="http://www.w3.org/2000/svg" xml:space="preserve" style="enable-background:new 0 0 1000 1000" viewBox="0 0 1000 1000" id="ui-ux">
  <path d="M0 0h1000v1000H0z" style="fill:#6a737f"></path>
  <path d="M909.841 666.303H95.678a9 9 0 0 1-9-9 9 9 0 0 1 9-9H909.84a9 9 0 0 1 9 9 9 9 0 0 1-8.999 9z" style="fill:#444e59"></path>
  <path d="M407.375 647.784h140.824v8.449H407.375z" style="fill:#444e59"></path>
  <path d="M646.043 592.862H313.757c-6.627 0-12-5.373-12-12V358.42c0-6.627 5.373-12 12-12h332.285c6.627 0 12 5.373 12 12v222.443c.001 6.627-5.372 11.999-11.999 11.999z" style="fill:#bbbfc2"></path>
  <path d="M389.772 303.468h181.663v312.63H389.772z" style="fill:#28a8e0" transform="rotate(90 480.604 459.783)"></path>
  <path d="M646.777 592.862h-52.105v-94.76c0-7.552 6.122-13.675 13.675-13.675h38.43v108.435zM327.072 501.326h-25.315v74.637c0 9.333 8.035 16.899 17.368 16.899h29.104v-70.038c0-11.638-9.519-21.498-21.157-21.498z" style="opacity:.4;fill:#848484"></path>
  <path d="M646.981 592.862H314.227c-6.627 0-12-5.373-12-12V358.42c0-6.627 5.373-12 12-12h332.755c6.627 0 12 5.373 12 12v222.443c-.001 6.627-5.373 11.999-12.001 11.999z" style="fill:none;stroke:#444e59;stroke-width:4;stroke-linecap:round;stroke-linejoin:round;stroke-miterlimit:10"></path>
  <path d="M389.775 303.935h181.658v311.691H389.775z" style="fill:none;stroke:#444e59;stroke-width:4;stroke-linecap:round;stroke-linejoin:round;stroke-miterlimit:10" transform="rotate(90 480.604 459.78)"></path>
  <path d="M575.859 541.87H404.061a7.045 7.045 0 0 1-7.045-7.045v-122.51a7.045 7.045 0 0 1 7.045-7.045h171.798a7.045 7.045 0 0 1 7.045 7.045v122.51a7.045 7.045 0 0 1-7.045 7.045z" style="opacity:.32;fill:#848484"></path>
  <path d="M567.911 535.124H396.113a7.045 7.045 0 0 1-7.045-7.045V405.57a7.045 7.045 0 0 1 7.045-7.045h171.798a7.045 7.045 0 0 1 7.045 7.045v122.51a7.045 7.045 0 0 1-7.045 7.044z" style="fill:#afb1b2"></path>
  <path d="M567.911 535.124H396.113a7.045 7.045 0 0 1-7.045-7.045V405.57a7.045 7.045 0 0 1 7.045-7.045h171.798a7.045 7.045 0 0 1 7.045 7.045v122.51a7.045 7.045 0 0 1-7.045 7.044z" style="fill:none;stroke:#444e59;stroke-width:4;stroke-linecap:round;stroke-linejoin:round;stroke-miterlimit:10"></path>
  <path d="M522.464 647.784h-83.72l10.367-54.922h62.986z" style="fill:#aeaeaf"></path>
  <path d="m514.924 608.353-2.827-15.491h-62.986l-2.827 15.491z" style="opacity:.32;fill:#848484"></path>
  <path d="M522.464 647.784h-83.72l10.367-54.922h62.986zM407.375 647.784h140.824v8.449H407.375z" style="fill:none;stroke:#444e59;stroke-width:4;stroke-linecap:round;stroke-linejoin:round;stroke-miterlimit:10"></path>
  <circle cx="480.085" cy="567.72" r="6.24" style="fill:#444e59"></circle>
  <path d="M553.829 522.45H382.031a7.045 7.045 0 0 1-7.045-7.045v-122.51a7.045 7.045 0 0 1 7.045-7.045h171.798a7.045 7.045 0 0 1 7.045 7.045v122.51a7.045 7.045 0 0 1-7.045 7.045z" style="fill:#fff"></path>
  <path d="M553.829 522.45H382.031a7.045 7.045 0 0 1-7.045-7.045v-122.51a7.045 7.045 0 0 1 7.045-7.045h171.798a7.045 7.045 0 0 1 7.045 7.045v122.51a7.045 7.045 0 0 1-7.045 7.045z" style="fill:none;stroke:#444e59;stroke-width:4;stroke-linecap:round;stroke-linejoin:round;stroke-miterlimit:10"></path>
  <path d="M560.874 406.974H374.986v-13.773c0-4.043 3.308-7.35 7.35-7.35h171.666a6.872 6.872 0 0 1 6.872 6.872v14.251z" style="fill:#bbbfc2"></path>
  <path d="M560.874 406.974H374.986v-13.773c0-4.043 3.308-7.35 7.35-7.35h171.666a6.872 6.872 0 0 1 6.872 6.872v14.251z" style="fill:none;stroke:#444e59;stroke-width:4;stroke-linecap:round;stroke-linejoin:round;stroke-miterlimit:10"></path>
  <circle cx="392.949" cy="396.528" r="3.282" style="fill:#444e59"></circle>
  <circle cx="403.793" cy="396.528" r="3.282" style="fill:#444e59"></circle>
  <circle cx="414.637" cy="396.528" r="3.282" style="fill:#444e59"></circle>
  <path d="M543.383 443.589H391.068a2 2 0 0 1-2-2V420.24a2 2 0 0 1 2-2h152.315a2 2 0 0 1 2 2v21.348a2 2 0 0 1-2 2.001z" style="fill:#6567c3"></path>
  <path d="M434.948 470.345h-43.88a2 2 0 0 1-2-2v-11.491a2 2 0 0 1 2-2h43.88a2 2 0 0 1 2 2v11.491a2 2 0 0 1-2 2z" style="opacity:.2;fill:#444e59"></path>
  <path d="M396.109 481.611h35.206M396.109 492.877h35.206" style="opacity:.2;fill:none;stroke:#444e59;stroke-width:4;stroke-linecap:round;stroke-linejoin:round;stroke-miterlimit:10"></path>
  <path d="M489.87 470.345h-43.88a2 2 0 0 1-2-2v-11.491a2 2 0 0 1 2-2h43.88a2 2 0 0 1 2 2v11.491a2 2 0 0 1-2 2z" style="opacity:.2;fill:#444e59"></path>
  <path d="M451.031 481.611h33.798M451.031 492.877h33.798" style="opacity:.2;fill:none;stroke:#444e59;stroke-width:4;stroke-linecap:round;stroke-linejoin:round;stroke-miterlimit:10"></path>
  <g style="opacity:.2">
    <path d="M544.791 494.285h-43.88a2 2 0 0 1-2-2v-35.431a2 2 0 0 1 2-2h43.88a2 2 0 0 1 2 2v35.431a2 2 0 0 1-2 2z" style="fill:#444e59"></path>
  </g>
  <g style="opacity:.09">
    <path d="M543.385 505.551h-41.842a2.816 2.816 0 0 1 0-5.632h41.842a2.816 2.816 0 0 1 0 5.632z" style="fill:#444e59"></path>
  </g>
  <path d="M229.193 613.414h-80.63a3.94 3.94 0 0 0-2.61.961l-19.458 17.048a3.954 3.954 0 0 0 0 5.95l19.458 17.309c.722.633 1.65 1.233 2.61 1.233h80.63c4.565 0 8.351-4.208 8.351-8.773v-25.504c0-4.565-3.786-8.224-8.351-8.224zm-82.743 25.935a4.959 4.959 0 1 1 0-9.917 4.959 4.959 0 0 1 0 9.917z" style="fill:#fff"></path>
  <path d="M167.082 613.414h23.487v42.501h-23.487z" style="fill:#f09f54"></path>
  <path d="M190.569 613.414h23.487v42.501h-23.487z" style="fill:#ed8b3b"></path>
  <path d="M227.09 655.915h-13.034v-42.501h13.411c5.542 0 10.077 4.534 10.077 10.077v21.971c0 5.749-4.704 10.453-10.454 10.453z" style="fill:#ff6c37"></path>
  <path d="M231.41 615.493a8.277 8.277 0 0 0-1.217-.078h-80.63a3.94 3.94 0 0 0-2.61.961l-19.458 17.048a3.954 3.954 0 0 0 0 5.95l12.153 10.651 13.209 3.343a8.064 8.064 0 0 0 1.986.247 8.132 8.132 0 0 0 3.678-.884l71.823-36.634c.369-.189.724-.385 1.066-.604zm-83.96 25.856a4.959 4.959 0 1 1 0-9.917 4.959 4.959 0 0 1 0 9.917z" style="opacity:.4;fill:#848484"></path>
  <path d="M229.193 613.414h-80.63a3.94 3.94 0 0 0-2.61.961l-19.458 17.048a3.954 3.954 0 0 0 0 5.95l19.458 17.309c.722.633 1.65 1.233 2.61 1.233h80.63c4.565 0 8.351-4.208 8.351-8.773v-25.504c0-4.565-3.786-8.224-8.351-8.224zm-82.743 25.935a4.959 4.959 0 1 1 0-9.917 4.959 4.959 0 0 1 0 9.917z" style="fill:none;stroke:#444e59;stroke-width:4;stroke-linecap:round;stroke-linejoin:round;stroke-miterlimit:10"></path>
  <path d="M167.082 613.414h23.487v42.501h-23.487zM190.569 613.414h23.487v42.501h-23.487zM227.09 655.915h-13.034v-42.501h13.411c5.542 0 10.077 4.534 10.077 10.077v21.971c0 5.749-4.704 10.453-10.454 10.453z" style="fill:none;stroke:#444e59;stroke-width:4;stroke-linecap:round;stroke-linejoin:round;stroke-miterlimit:10"></path>
  <path d="m208.361 572.961-71.822 36.644a3.962 3.962 0 0 0-1.879 2.061l-9.58 24.038a3.959 3.959 0 0 0 2.706 5.304l25.084 6.352a3.962 3.962 0 0 0 2.772-.311l71.822-36.644a8.265 8.265 0 0 0 3.606-11.119l-11.591-22.718a8.264 8.264 0 0 0-11.118-3.607z" style="fill:#fff"></path>
  <path d="M182.156 582.918h23.484v42.035h-23.484z" style="fill:#8d91db" transform="rotate(-27.031 193.882 603.896)"></path>
  <path d="m208.361 572.961-71.822 36.644a3.962 3.962 0 0 0-1.879 2.061l-9.58 24.038a3.959 3.959 0 0 0 2.706 5.304l25.084 6.352a3.962 3.962 0 0 0 2.772-.311l71.822-36.644a8.265 8.265 0 0 0 3.606-11.119l-11.591-22.718a8.264 8.264 0 0 0-11.118-3.607z" style="fill:none;stroke:#444e59;stroke-width:4;stroke-linecap:round;stroke-linejoin:round;stroke-miterlimit:10"></path>
  <circle cx="144.208" cy="629.287" r="5.792" style="fill:#444e59"></circle>
  <path d="M161.237 593.591h23.484v42.035h-23.484z" style="fill:#beccd5;stroke:#444e59;stroke-width:4;stroke-linecap:round;stroke-linejoin:round;stroke-miterlimit:10" transform="rotate(-27.031 172.965 614.568)"></path>
  <path d="M161.237 593.591h23.484v42.035h-23.484z" style="fill:none;stroke:#444e59;stroke-width:4;stroke-linecap:round;stroke-linejoin:round;stroke-miterlimit:10" transform="rotate(-27.031 172.965 614.568)"></path>
  <path d="M182.156 582.918h23.484v42.035h-23.484z" style="fill:none;stroke:#444e59;stroke-width:4;stroke-linecap:round;stroke-linejoin:round;stroke-miterlimit:10" transform="rotate(-27.031 193.882 603.896)"></path>
  <path d="m225.92 611.193-12.011 6.128-19.104-37.443 12.011-6.128c4.92-2.51 10.942-.557 13.452 4.363l10.014 19.628c2.511 4.919.557 10.942-4.362 13.452z" style="fill:#6567c3"></path>
  <path d="m225.92 611.193-12.011 6.128-19.104-37.443 12.011-6.128c4.92-2.51 10.942-.557 13.452 4.363l10.014 19.628c2.511 4.919.557 10.942-4.362 13.452z" style="fill:none;stroke:#444e59;stroke-width:4;stroke-linecap:round;stroke-linejoin:round;stroke-miterlimit:10"></path>
  <path d="M326.963 656.233h-67.311c-5.523 0-10-4.477-10-10V511.326c0-5.523 4.477-10 10-10h67.311c5.523 0 10 4.477 10 10v134.907c0 5.523-4.477 10-10 10z" style="fill:#fff"></path>
  <path d="M338.371 547.799h-88.719v-36.692c0-5.401 4.379-9.78 9.78-9.78h68.602c5.685 0 10.337 4.652 10.337 10.337v36.135z" style="fill:#6567c3"></path>
  <path d="M326.963 656.233h-67.311c-5.523 0-10-4.477-10-10V511.326c0-5.523 4.477-10 10-10h67.311c5.523 0 10 4.477 10 10v134.907c0 5.523-4.477 10-10 10z" style="fill:none;stroke:#444e59;stroke-width:4;stroke-linecap:round;stroke-linejoin:round;stroke-miterlimit:10"></path>
  <path d="M327.072 656.233h-67.068c-5.694 0-10.352-4.658-10.352-10.352V626.66h87.311v19.682c0 5.463-4.428 9.891-9.891 9.891z" style="fill:#bbbfc2"></path>
  <path d="M327.272 656.233h-67.268c-5.694 0-10.352-4.658-10.352-10.352V626.66h87.311v19.882c0 5.352-4.339 9.691-9.691 9.691z" style="fill:none;stroke:#444e59;stroke-width:4;stroke-linecap:round;stroke-linejoin:round;stroke-miterlimit:10"></path>
  <circle cx="294.022" cy="640.783" r="4.976" style="fill:#444e59"></circle>
  <path d="M269.367 563.289h49.289M279.225 578.78h30.982M269.367 592.862h49.289" style="opacity:.3;fill:none;stroke:#444e59;stroke-width:4;stroke-linecap:round;stroke-linejoin:round;stroke-miterlimit:10"></path>
  <circle cx="294.022" cy="528.109" r="11.203" style="opacity:.62;fill:#fff"></circle>
  <path d="M310.207 608.353a5.633 5.633 0 0 1-5.633 5.633H283.45a5.633 5.633 0 0 1 0-11.266h21.124a5.633 5.633 0 0 1 5.633 5.633z" style="fill:#ed8b3b"></path>
  <path d="M848.155 637.926H605.938V492.25a7.823 7.823 0 0 1 7.823-7.823h226.83a7.566 7.566 0 0 1 7.566 7.566v145.933z" style="fill:#bbbfc2"></path>
  <path d="M848.767 638.18H606.55V492.178a8 8 0 0 1 8-8h226.217a8 8 0 0 1 8 8V638.18z" style="fill:none;stroke:#444e59;stroke-width:4;stroke-linecap:round;stroke-linejoin:round;stroke-miterlimit:10"></path>
  <path d="M663.676 453.446h128.15v215.461h-128.15z" style="opacity:.71;fill:#5d5d5d" transform="rotate(90 727.75 561.177)"></path>
  <path d="M672.728 600.919h-18.606a1.963 1.963 0 0 1-1.963-1.963v-63.67c0-1.084.879-1.963 1.963-1.963h18.606c1.084 0 1.963.879 1.963 1.963v63.67a1.963 1.963 0 0 1-1.963 1.963zM807.049 613.784H699.573a4 4 0 0 1-4-4v-82.128a4 4 0 0 1 4-4h107.476a4 4 0 0 1 4 4v82.128a4 4 0 0 1-4 4z" style="opacity:.32;fill:#848484"></path>
  <path d="M664.114 453.527h127.088v215.304H664.114z" style="fill:none;stroke:#444e59;stroke-width:4;stroke-linecap:round;stroke-linejoin:round;stroke-miterlimit:10" transform="rotate(90 727.659 561.179)"></path>
  <path d="M875.203 638.18H580.114v9.414a8 8 0 0 0 8 8h279.089a8 8 0 0 0 8-8v-9.414z" style="fill:#fff"></path>
  <path d="M591.38 656.233h272.557c5.473 0 10.031-4.225 11.05-9.858H580.33c1.019 5.633 5.577 9.858 11.05 9.858z" style="opacity:.8;fill:#bbbfc2"></path>
  <path d="M875.203 638.18H580.114v9.414a8 8 0 0 0 8 8h279.089a8 8 0 0 0 8-8v-9.414z" style="fill:none;stroke:#444e59;stroke-width:4;stroke-linecap:round;stroke-linejoin:round;stroke-miterlimit:10"></path>
  <path d="M646.777 528.083h22.532v22.532h-22.532z" style="fill:#f09f54"></path>
  <path d="M647.159 528.323h22.532v22.532h-22.532z" style="fill:none;stroke:#444e59;stroke-width:4;stroke-linecap:round;stroke-linejoin:round;stroke-miterlimit:10"></path>
  <path d="M647.159 528.323h22.532v22.532h-22.532z" style="fill:none;stroke:#444e59;stroke-width:4;stroke-linecap:round;stroke-linejoin:round;stroke-miterlimit:10"></path>
  <path d="M646.777 550.615h22.532v22.532h-22.532z" style="fill:#8d91db"></path>
  <path d="M647.159 550.855h22.532v22.532h-22.532z" style="fill:none;stroke:#444e59;stroke-width:4;stroke-linecap:round;stroke-linejoin:round;stroke-miterlimit:10"></path>
  <path d="M646.777 573.147h22.532v22.532h-22.532z" style="fill:#6567c3"></path>
  <path d="M647.159 573.387h22.532v22.532h-22.532z" style="fill:none;stroke:#444e59;stroke-width:4;stroke-linecap:round;stroke-linejoin:round;stroke-miterlimit:10"></path>
  <path d="M800.5 606.945H693.024a4 4 0 0 1-4-4v-82.128a4 4 0 0 1 4-4H800.5a4 4 0 0 1 4 4v82.128a4 4 0 0 1-4 4z" style="fill:#fff"></path>
  <path d="M800.5 606.945H693.024a4 4 0 0 1-4-4v-82.128a4 4 0 0 1 4-4H800.5a4 4 0 0 1 4 4v82.128a4 4 0 0 1-4 4z" style="fill:none;stroke:#444e59;stroke-width:4;stroke-linecap:round;stroke-linejoin:round;stroke-miterlimit:10"></path>
  <g style="opacity:.3">
    <path d="M770.701 583.153v1.5h-1.5" style="fill:none;stroke:#444e59;stroke-width:2;stroke-linejoin:round"></path>
    <path d="M767.296 584.653h-41.917" style="fill:none;stroke:#444e59;stroke-width:2;stroke-linejoin:round;stroke-dasharray:2.858,1.9053"></path>
    <path d="M724.426 584.653h-1.5v-1.5" style="fill:none;stroke:#444e59;stroke-width:2;stroke-linejoin:round"></path>
    <path d="M722.926 581.15v-39.059" style="fill:none;stroke:#444e59;stroke-width:2;stroke-linejoin:round;stroke-dasharray:3.0046,2.003"></path>
    <path d="M722.926 541.089v-1.5h1.5" style="fill:none;stroke:#444e59;stroke-width:2;stroke-linejoin:round"></path>
    <path d="M726.331 539.589h41.918" style="fill:none;stroke:#444e59;stroke-width:2;stroke-linejoin:round;stroke-dasharray:2.858,1.9053"></path>
    <path d="M769.201 539.589h1.5v1.5" style="fill:none;stroke:#444e59;stroke-width:2;stroke-linejoin:round"></path>
    <path d="M770.701 543.092v39.059" style="fill:none;stroke:#444e59;stroke-width:2;stroke-linejoin:round;stroke-dasharray:3.0046,2.003"></path>
  </g>
  <path d="M719.603 536.053h7.071v7.071h-7.071z" style="fill:#fff"></path>
  <path d="M719.301 535.828h7.041v7.041h-7.041z" style="fill:none;stroke:#444e59;stroke-linejoin:round;stroke-miterlimit:10"></path>
  <path d="M719.603 581.117h7.071v7.071h-7.071z" style="fill:#fff"></path>
  <path d="M719.301 580.892h7.041v7.041h-7.041z" style="fill:none;stroke:#444e59;stroke-linejoin:round;stroke-miterlimit:10"></path>
  <path d="M767.165 536.053h7.071v7.071h-7.071z" style="fill:#fff"></path>
  <path d="M767.181 535.828h7.041v7.041h-7.041z" style="fill:none;stroke:#444e59;stroke-linejoin:round;stroke-miterlimit:10"></path>
  <path d="M767.165 581.117h7.071v7.071h-7.071z" style="fill:#fff"></path>
  <path d="M767.181 580.892h7.041v7.041h-7.041z" style="fill:none;stroke:#444e59;stroke-linejoin:round;stroke-miterlimit:10"></path>
  <path d="m658.548 562.487 7.045 15.218 6.956 3.574 4.791-4.791-3.574-6.956z" style="fill:#fff"></path>
  <path d="m658.548 562.487 7.045 15.218 6.956 3.574 4.791-4.791-3.574-6.956z" style="fill:none;stroke:#444e59;stroke-linejoin:round;stroke-miterlimit:10"></path>
  <circle cx="667.452" cy="571.077" r="1.919" style="fill:#444e59"></circle>
  <path d="m658.548 562.487 7.875 7.875" style="fill:none;stroke:#444e59;stroke-linecap:round;stroke-linejoin:round;stroke-miterlimit:10"></path>
  <path d="M673.278 578.149h6.827v4.89h-6.827z" style="fill:#fff" transform="rotate(-45.001 676.688 580.604)"></path>
  <path d="M673.278 578.149h6.827v4.89h-6.827z" style="fill:none;stroke:#444e59;stroke-linejoin:round;stroke-miterlimit:10" transform="rotate(-45.001 676.688 580.604)"></path>
</svg>
